#!OML:ASF F:\VICON\USERDATA\INSTALL\rory3\rory3.ASF
:FULLY-SPECIFIED
:DEGREES
1162
root -2.01547 17.8999 -2.02199 -0.565157 14.3142 -1.40642
lowerback 9.78791 7.82922 2.18232
upperback 2.88566 10.5469 -2.87426
thorax -1.46356 5.30347 -5.24992
lowerneck -21.922 -7.63793 -12.2924
upperneck 21.4225 -9.43669 11.0381
head 11.8005 -3.92221 4.54098
rclavicle -1.96797e-014 -3.97569e-015
rhumerus 6.34189 21.7841 -49.9193
rradius 78.9684
rwrist 24.9729
rhand -23.7554 12.2358
rfingers 7.12502
rthumb 2.7136 -17.7267
lclavicle -1.96797e-014 -3.97569e-015
lhumerus -49.041 22.8423 45.81
lradius 56.1152
lwrist -7.18201
lhand -18.3951 13.6028
lfingers 7.12502
lthumb 7.88903 43.4356
rfemur -10.4605 -19.6065 28.5964
rtibia 29.5628
rfoot -18.1192 -1.8053
rtoes 9.85462
lfemur -52.7538 0.372387 -13.9101
ltibia 82.6787
lfoot 6.76344 -11.9877
ltoes -12.327
1163
root -1.98515 17.8934 -1.99718 -0.604704 14.6595 -1.49486
lowerback 9.74633 7.44824 2.29083
upperback 2.42449 10.0463 -2.86541
thorax -1.95678 5.03045 -5.29749
lowerneck -21.7615 -7.55366 -12.4417
upperneck 21.8461 -9.44191 11.4606
head 11.9679 -3.88783 4.74361
rclavicle -1.28216e-014 2.14687e-014
rhumerus 4.8417 21.6543 -50.8529
rradius 79.2447
rwrist 25.0518
rhand -23.6329 12.1269
rfingers 7.12502
rthumb 2.83191 -17.8341
lclavicle -1.28216e-014 2.14687e-014
lhumerus -49.0169 21.7369 46.0864
lradius 56.4319
lwrist -6.23365
lhand -18.459 13.4453
lfingers 7.12502
lthumb 7.82736 43.2804
rfemur -10.3832 -19.8096 28.5332
rtibia 29.7082
rfoot -18.2185 -1.73494
rtoes 9.37375
lfemur -50.5134 0.698954 -13.8684
ltibia 81.0565
lfoot 6.21844 -12.2161
ltoes -12.6435
1164
root -1.95187 17.8894 -1.97009 -0.548226 15.118 -1.43046
lowerback 9.49867 6.99977 2.13766
upperback 2.04535 9.43261 -2.74901
thorax -2.32548 4.70524 -5.04446
lowerneck -21.637 -7.46801 -12.6714
upperneck 22.2859 -9.34971 11.6487
head 12.1248 -3.84512 4.88893
rclavicle -9.74045e-015 -7.15625e-015
rhumerus 3.55939 21.6888 -51.4738
rradius 79.5484
rwrist 25.0202
rhand -23.4149 12.1101
rfingers 7.12502
rthumb 3.04239 -17.8479
lclavicle -9.74045e-015 -7.15625e-015
lhumerus -49.1699 21.1082 46.4821
lradius 56.8048
lwrist -5.57191
lhand -19.3537 14.1712
lfingers 7.12502
lthumb 6.96373 44.0366
rfemur -10.3619 -19.9283 28.3095
rtibia 29.8805
rfoot -18.4258 -1.68668
rtoes 8.94997
lfemur -48.3318 0.838972 -13.9877
ltibia 79.3252
lfoot 5.58949 -12.2219
ltoes -12.4099
1165
root -1.91948 17.8834 -1.94375 -0.483664 15.6056 -1.4011
lowerback 9.08389 6.59753 1.91357
upperback 1.78809 8.87661 -2.55849
thorax -2.48534 4.41865 -4.64592
lowerneck -21.5795 -7.44501 -12.6752
upperneck 22.578 -9.31703 11.53
head 12.215 -3.84605 4.85931
rclavicle -9.44227e-014 1.27222e-014
rhumerus 2.36605 21.5487 -51.9099
rradius 79.8781
rwrist 24.9296
rhand -23.3144 12.0624
rfingers 7.12502
rthumb 3.13945 -17.8942
lclavicle -9.44227e-014 1.27222e-014
lhumerus -48.997 20.6824 47.065
lradius 57.0056
lwrist -5.27068
lhand -19.988 14.6373
lfingers 7.12502
lthumb 6.35136 44.5221
rfemur -10.3522 -19.9255 28.123
rtibia 30.0786
rfoot -18.7943 -1.55021
rtoes 9.21827
lfemur -46.1974 0.962683 -14.0686
ltibia 77.5383
lfoot 4.37967 -12.1366
ltoes -12.7837
1166
root -1.88757 17.869 -1.92274 -0.454168 16.0986 -1.48247
lowerback 8.71312 6.22246 1.77704
upperback 1.54013 8.36778 -2.31795
thorax -2.64092 4.15688 -4.25336
lowerneck -21.4972 -7.44052 -12.623
upperneck 22.7884 -9.31391 11.371
head 12.2675 -3.86152 4.79626
rclavicle -4.80065e-014 -4.77083e-015
rhumerus 1.1616 21.2729 -52.2697
rradius 80.2161
rwrist 24.838
rhand -23.217 12.0735
rfingers 7.12502
rthumb 3.23354 -17.8818
lclavicle -4.80065e-014 -4.77083e-015
lhumerus -48.72 20.3956 47.5862
lradius 56.9944
lwrist -5.55815
lhand -19.145 14.1423
lfingers 7.12502
lthumb 7.16515 44.001
rfemur -10.3717 -19.9862 28.0611
rtibia 30.3215
rfoot -19.1362 -1.33746
rtoes 9.87021
lfemur -44.1631 1.17274 -14.0365
ltibia 75.749
lfoot 3.19226 -12.2981
ltoes -13.3335
1167
root -1.85133 17.8541 -1.89716 -0.406227 16.6382 -1.67833
lowerback 8.26072 5.84356 1.77293
upperback 1.27431 7.86727 -2.03989
thorax -2.74847 3.90073 -3.88725
lowerneck -21.3502 -7.44855 -12.58
upperneck 22.9716 -9.31407 11.1558
head 12.2943 -3.88852 4.71189
rclavicle -4.86029e-014 1.51076e-014
rhumerus -0.0612598 20.8599 -52.5325
rradius 80.4959
rwrist 24.9809
rhand -22.9997 12.467
rfingers 7.12502
rthumb 3.44339 -17.4849
lclavicle -4.86029e-014 1.51076e-014
lhumerus -48.4024 20.0786 48.2062
lradius 56.9711
lwrist -5.96336
lhand -19.0083 13.7471
lfingers 7.12502
lthumb 7.29718 43.6013
rfemur -10.4386 -20.079 28.1206
rtibia 30.6319
rfoot -19.525 -1.12256
rtoes 11.0439
lfemur -42.2001 1.32815 -13.8723
ltibia 73.9166
lfoot 2.74599 -12.4541
ltoes -12.8752
1168
root -1.81169 17.8469 -1.86761 -0.178296 17.2498 -1.77984
lowerback 7.59713 5.43409 1.65039
upperback 0.99666 7.31456 -1.7556
thorax -2.76361 3.6228 -3.42601
lowerneck -21.3066 -7.46378 -12.6382
upperneck 23.2517 -9.27899 10.9213
head 12.3792 -3.90787 4.64497
rclavicle -3.26007e-014 -6.36111e-015
rhumerus -1.24343 20.5549 -52.6272
rradius 80.824
rwrist 25.0848
rhand -22.823 12.32
rfingers 7.12502
rthumb 3.61398 -17.6291
lclavicle -3.26007e-014 -6.36111e-015
lhumerus -48.0949 19.737 48.9876
lradius 57.0736
lwrist -6.10267
lhand -19.6511 14.1183
lfingers 7.12502
lthumb 6.67665 43.993
rfemur -10.6768 -20.1948 28.117
rtibia 30.9997
rfoot -20.0009 -0.943085
rtoes 11.1926
lfemur -40.3952 1.32621 -13.811
ltibia 71.9966
lfoot 2.08517 -12.4489
ltoes -13.3417
1169
root -1.77005 17.8405 -1.83795 0.107165 17.8482 -1.57903
lowerback 6.90131 5.0422 1.23633
upperback 0.78841 6.76157 -1.54292
thorax -2.70355 3.35078 -2.87743
lowerneck -21.3707 -7.50094 -12.6367
upperneck 23.5864 -9.27494 10.6469
head 12.5064 -3.93731 4.54606
rclavicle -2.84759e-014 5.56597e-015
rhumerus -2.31265 20.2263 -52.6769
rradius 81.1631
rwrist 25.0386
rhand -22.6645 12.0659
rfingers 7.12502
rthumb 3.76713 -17.8806
lclavicle -2.84759e-014 5.56597e-015
lhumerus -47.7587 19.3667 49.8548
lradius 57.2155
lwrist -6.26052
lhand -18.9315 14.1674
lfingers 7.12502
lthumb 7.3713 44.019
rfemur -10.898 -20.3539 27.7698
rtibia 31.4094
rfoot -20.3241 -0.750699
rtoes 10.8068
lfemur -38.5048 1.28063 -14.104
ltibia 69.958
lfoot 0.966862 -12.3339
ltoes -13.9371
